<svg xmlns="http://www.w3.org/2000/svg" width="146" height="30" viewBox="0 0 146 30">
  <defs>
    <linearGradient id="a" x1="100%" x2="0%" y1="42.883%" y2="57.117%">
      <stop offset="0%" stop-color="#4678FF"/>
      <stop offset="100%" stop-color="#0037BE"/>
    </linearGradient>
  </defs>
  <g fill="none" fill-rule="evenodd">
    <path fill="#FFF" fill-rule="nonzero" d="M72.157 9.346a10.44 10.44 0 0 0-4.038-3.97 12.26 12.26 0 0 0-11.498 0 10.433 10.433 0 0 0-4.038 3.961 11.087 11.087 0 0 0-1.466 5.673c.004.552.046 1.104.125 1.652h4.451a8.178 8.178 0 0 1-.18-1.652c-.099-3.817 2.891-6.994 6.678-7.094 3.785-.1 6.935 2.915 7.034 6.735.002.12.002.24 0 .36.11 3.761-2.823 6.9-6.553 7.01-.101.003-.2.005-.301.003H49.235L37.642 4.464H0v4.042h11.439a6.926 6.926 0 0 1 5.007 1.897 6.463 6.463 0 0 1 1.965 4.86 6.492 6.492 0 0 1-1.965 4.863 6.916 6.916 0 0 1-5.007 1.898H4.392V14.13H0v11.944h11.439a12.16 12.16 0 0 0 5.847-1.403 10.513 10.513 0 0 0 4.108-3.873 10.998 10.998 0 0 0 0-11.05c-.261-.43-.554-.84-.872-1.231h14.443l-11.593 17.56h4.819l9.45-14.315 6.783 10.289h-6.57l-2.667 4.04h27.191a11.574 11.574 0 0 0 5.75-1.44 10.498 10.498 0 0 0 4.038-3.97 11.656 11.656 0 0 0 0-11.317l-.009-.018z"/>
    <path fill="url(#a)" d="M95.297 17.373c1.086 0 1.959.942 1.959 2.066 0 1.093-.875 2.035-1.959 2.035h-6.838v-4.101h6.838zm1.446-6.196c0 1.093-.872 1.944-1.987 1.944h-6.295V9.082h6.295c1.115 0 1.987.971 1.987 2.095zM66.48 0h79.517v30h-79.31a15.975 15.975 0 0 0 3.559-1.43 14.937 14.937 0 0 0 5.748-5.65l.031-.056c2.668-4.804 2.688-10.763.055-15.582l-.093-.168a14.876 14.876 0 0 0-5.757-5.66l-.055-.029A16.604 16.604 0 0 0 66.48 0zm28.879 26.092c3.614 0 6.535-2.946 6.539-6.564 0-1.973-.903-3.492-2.259-4.465 1.053-.97 1.776-2.277 1.776-4.039 0-3.584-2.952-6.562-6.537-6.562H83.823v21.63h11.536zM139.811 9.08h-.002V4.462h-34.69V26.09h17.2v-4.618h-12.56v-3.98h9.036v-4.555h-9.036V9.05l18.002.031v17.012h4.61V9.08h7.44z"/>
  </g>
</svg>