<svg width="115" height="28" viewBox="0 0 115 28" fill="none" xmlns="http://www.w3.org/2000/svg">
<path d="M79.6563 17.4397C79.6563 18.5223 78.7984 19.3977 77.7441 19.3977H71.7024V15.4817H77.4541C77.4692 15.4817 77.4843 15.4786 77.4994 15.4786H77.7471C78.7984 15.4817 79.6563 16.357 79.6563 17.4397ZM92.5099 11.4295C91.4466 11.4326 90.4255 11.8719 89.6794 12.6483C89.3108 13.0318 89.0208 13.4927 88.8366 13.9969H96.1591C95.5761 12.4534 94.1261 11.4326 92.5099 11.4295ZM79.2636 10.3716C79.2636 9.34777 78.451 8.51878 77.4541 8.51878H71.7024V12.2245H77.4964C78.4781 12.1997 79.2605 11.3769 79.2636 10.3716ZM115 0V27.9969L52.644 28C60.187 26.1286 64.8179 18.3491 62.9873 10.6284C61.7367 5.34202 57.6797 1.23111 52.5081 0.00309324L115 0ZM82.8372 17.4397C82.8372 16.0168 82.2693 14.6527 81.2603 13.6721C83.0426 11.5223 82.7828 8.29916 80.6834 6.47415C79.7801 5.69156 78.6382 5.2616 77.4541 5.2616H68.5245V22.6549H77.7441C80.5565 22.6549 82.8372 20.3195 82.8372 17.4397ZM99.6028 15.4384C99.5998 11.4295 96.4249 8.17852 92.5099 8.17543H92.5039C88.5979 8.18162 85.4321 11.4171 85.417 15.4167C85.417 15.426 85.417 15.4353 85.417 15.4476C85.417 15.4569 85.417 15.4662 85.417 15.4724H85.414C85.414 19.3544 88.4862 22.5002 92.2773 22.5002L96.3856 22.5033V19.2461L92.2803 19.243C90.7397 19.2399 89.3592 18.2563 88.8275 16.7746H99.479C99.5605 16.3354 99.6028 15.8869 99.6028 15.4384ZM109.859 19.4874H108.487C107.218 19.4874 106.191 18.4326 106.188 17.1335V11.9306H109.288V8.67344H106.188V5.41008H103.007V8.67344H101.24V11.9306H103.007V17.1335C103.01 20.1834 105.397 22.6734 108.375 22.7384H109.859V19.4874Z" fill="url(#paint0_linear)"/>
<path d="M57.0695 9.23642C56.3113 7.89396 55.2057 6.78967 53.8765 6.04729C51.0309 4.51614 47.6294 4.51614 44.7808 6.04729C43.4516 6.78658 42.346 7.88777 41.5878 9.22714C40.8054 10.6098 40.4066 12.1843 40.4278 13.7835C40.4308 14.2258 40.464 14.6712 40.5275 15.1105H44.0467C43.9561 14.6743 43.9078 14.232 43.9048 13.7835C43.8323 10.7181 46.1976 8.16925 49.1942 8.09502C52.1818 8.02078 54.668 10.4335 54.7495 13.4958C54.7526 13.5917 54.7526 13.6876 54.7495 13.7835C54.8371 16.8025 52.5171 19.3235 49.5658 19.4132C49.4872 19.4163 49.4087 19.4163 49.3271 19.4163H38.9385L29.7703 5.31729H0V8.5621H9.04739C10.5125 8.50951 11.9383 9.05701 13.0077 10.0871C14.0438 11.1016 14.6087 12.5214 14.5634 13.9876C14.6087 15.4569 14.0438 16.8767 13.0077 17.8944C11.9383 18.9244 10.5125 19.472 9.04739 19.4194H3.47396V13.0782H0V22.6704H9.04739C10.6575 22.6951 12.2464 22.3085 13.6723 21.5444C15.0105 20.8299 16.1343 19.7565 16.9227 18.4357C18.4935 15.6951 18.4935 12.3018 16.9227 9.56121C16.7143 9.21477 16.4847 8.88689 16.2339 8.57447H27.6587L18.4875 22.6735H22.2968L29.7703 11.179L35.1353 19.441H29.9395L27.8309 22.6858H49.3362C50.9252 22.7075 52.49 22.3085 53.8826 21.529C55.2117 20.7866 56.3173 19.6823 57.0756 18.3398C58.6192 15.5157 58.6192 12.076 57.0756 9.25189L57.0695 9.23642Z" fill="white"/>
<defs>
<linearGradient id="paint0_linear" x1="52.7039" y1="13.9998" x2="114.87" y2="13.9998" gradientUnits="userSpaceOnUse">
<stop stop-color="#3671ED"/>
<stop offset="1" stop-color="#2153D8"/>
</linearGradient>
</defs>
</svg>
